<svg xmlns="http://www.w3.org/2000/svg" xmlns:xlink="http://www.w3.org/1999/xlink" version="1.1" id="Layer_1" x="0px" y="0px" width="100%" viewBox="0 0 981 912" enable-background="new 0 0 981 912" xml:space="preserve">
<path fill="var(--secondary-color)" opacity="1.000000" stroke="none" d=" M1.000000,409.000000   C1.000000,395.645782 1.000000,382.291534 1.382650,368.314575   C2.186072,364.395020 2.585406,361.095276 3.030957,357.801788   C7.113510,327.623535 18.448238,300.674530 39.928223,278.776550   C74.022980,244.018326 116.632401,224.068497 162.972656,212.449295   C188.028091,206.166962 214.115601,204.006058 239.733566,199.960785   C272.178345,194.837524 301.733307,183.125656 327.606384,162.417572   C348.831207,145.429840 366.489624,125.112595 383.710693,104.323273   C402.207794,81.993561 420.833069,59.805439 444.265900,42.285275   C470.175873,22.913040 498.274536,8.454011 530.639709,3.483444   C536.417358,2.596130 542.212769,1.824852 548.000000,1.000000   C550.700012,1.000000 553.400024,1.000000 556.727783,1.393590   C586.518799,2.815788 613.508545,11.486275 639.156067,24.957670   C672.305603,42.369572 701.396667,65.365837 728.435242,90.935341   C777.980164,137.788315 825.025696,187.094513 869.658325,238.642487   C900.862976,274.681976 929.703247,312.531036 952.471680,354.628387   C966.389648,380.361847 977.726074,407.064728 980.511719,436.605225   C982.613586,458.893555 978.452087,479.710571 964.781433,497.977600   C946.282227,522.696716 920.442505,532.565796 890.660583,533.933411   C860.236389,535.330383 830.730347,529.201172 801.318115,522.438599   C764.881531,514.060852 728.550903,505.142365 691.916809,497.731293   C666.156677,492.520050 640.079224,492.990936 615.125000,502.618805   C593.616333,510.917389 572.024719,519.236755 551.277954,529.225525   C507.243744,550.426270 465.760803,575.890930 428.286774,607.521240   C408.597382,624.140320 391.390137,642.695557 382.425720,667.478821   C377.739868,680.433411 373.041718,693.403564 368.992737,706.564636   C358.444092,740.852600 348.820862,775.435303 337.726990,809.542114   C329.533386,834.732361 318.523132,858.812683 301.507812,879.580505   C287.284363,896.940735 269.667664,908.646851 246.950500,911.626343   C244.286118,911.975769 241.649506,912.536987 239.000000,913.000000   C236.629440,913.000000 234.258896,913.000000 231.294434,912.617004   C213.173111,910.826904 197.548935,904.489075 183.339066,894.258606   C162.589188,879.319458 146.866043,859.835938 133.061584,838.676941   C107.866295,800.058411 89.801651,757.993103 74.061180,714.867798   C51.645969,653.455200 34.507614,590.508118 21.145348,526.575623   C14.349131,494.058716 9.250636,461.185242 3.508759,428.451202   C2.380434,422.018677 1.821524,415.486328 1.000000,409.000000  M336.178406,534.673279   C360.297577,503.470551 369.722809,468.225220 362.570190,429.530640   C349.085144,356.578644 281.118286,310.447357 208.363922,323.928864   C135.940521,337.349060 87.602501,410.934204 105.493050,482.458221   C118.579567,534.776428 152.007217,568.957642 204.821350,580.743713   C256.990662,592.385925 300.923676,575.768372 336.178406,534.673279  M581.453430,270.712433   C585.304932,247.543701 569.362549,226.632156 546.660767,225.075104   C525.587463,223.629745 508.215149,238.334366 505.460022,259.949036   C502.978394,279.418121 517.539612,297.891052 538.182190,301.461700   C557.586731,304.818207 576.714233,291.521698 581.453430,270.712433  M544.102295,191.413544   C544.984375,192.174545 545.835449,192.975296 546.753235,193.690552   C559.945618,203.972549 577.669250,204.793106 591.503601,195.775757   C605.315430,186.773132 611.866516,170.006821 607.833801,153.981628   C603.873169,138.243210 589.835999,126.479568 573.419067,125.140938   C558.018250,123.885170 542.761353,132.691757 535.978149,146.752579   C528.746826,161.742294 531.555054,178.019165 544.102295,191.413544  M660.985046,321.540680   C677.662903,309.864075 683.233826,289.831512 674.659851,272.367432   C666.332397,255.405228 646.774292,246.794327 628.874268,252.568451   C613.949707,257.382721 604.676575,267.828064 602.277466,283.220093   C599.848328,298.805481 605.330872,311.935272 618.533081,320.876099   C632.027649,330.014862 646.209351,330.013000 660.985046,321.540680  M630.060181,200.204239   C636.414368,217.973709 651.117615,228.577835 668.403748,227.858002   C691.118713,226.912094 707.623657,207.139084 705.008606,184.005173   C702.663208,163.256897 681.249939,147.494766 660.700439,151.390350   C637.794434,155.732651 624.044434,177.172287 630.060181,200.204239  z"/>
<path fill="transparent" opacity="1.000000" stroke="none" d=" M239.468658,913.000000   C241.649506,912.536987 244.286118,911.975769 246.950500,911.626343   C269.667664,908.646851 287.284363,896.940735 301.507812,879.580505   C318.523132,858.812683 329.533386,834.732361 337.726990,809.542114   C348.820862,775.435303 358.444092,740.852600 368.992737,706.564636   C373.041718,693.403564 377.739868,680.433411 382.425720,667.478821   C391.390137,642.695557 408.597382,624.140320 428.286774,607.521240   C465.760803,575.890930 507.243744,550.426270 551.277954,529.225525   C572.024719,519.236755 593.616333,510.917389 615.125000,502.618805   C640.079224,492.990936 666.156677,492.520050 691.916809,497.731293   C728.550903,505.142365 764.881531,514.060852 801.318115,522.438599   C830.730347,529.201172 860.236389,535.330383 890.660583,533.933411   C920.442505,532.565796 946.282227,522.696716 964.781433,497.977600   C978.452087,479.710571 982.613586,458.893555 980.511719,436.605225   C977.726074,407.064728 966.389648,380.361847 952.471680,354.628387   C929.703247,312.531036 900.862976,274.681976 869.658325,238.642487   C825.025696,187.094513 777.980164,137.788315 728.435242,90.935341   C701.396667,65.365837 672.305603,42.369572 639.156067,24.957670   C613.508545,11.486275 586.518799,2.815788 557.177734,1.393590   C698.636902,1.000000 840.273804,1.000000 981.955322,1.000000   C981.955322,304.906311 981.955322,608.812683 981.955322,913.000000   C734.645813,913.000000 487.291565,913.000000 239.468658,913.000000  z"/>
<path fill="transparent" opacity="1.000000" stroke="none" d=" M547.531372,1.000000   C542.212769,1.824852 536.417358,2.596130 530.639709,3.483444   C498.274536,8.454011 470.175873,22.913040 444.265900,42.285275   C420.833069,59.805439 402.207794,81.993561 383.710693,104.323273   C366.489624,125.112595 348.831207,145.429840 327.606384,162.417572   C301.733307,183.125656 272.178345,194.837524 239.733566,199.960785   C214.115601,204.006058 188.028091,206.166962 162.972656,212.449295   C116.632401,224.068497 74.022980,244.018326 39.928223,278.776550   C18.448238,300.674530 7.113510,327.623535 3.030957,357.801788   C2.585406,361.095276 2.186072,364.395020 1.382650,367.845947   C1.000000,245.725235 1.000000,123.450462 1.000000,1.000000   C183.020859,1.000000 365.041779,1.000000 547.531372,1.000000  z"/>
<path fill="transparent" opacity="1.000000" stroke="none" d=" M1.000000,409.468658   C1.821524,415.486328 2.380434,422.018677 3.508759,428.451202   C9.250636,461.185242 14.349131,494.058716 21.145348,526.575623   C34.507614,590.508118 51.645969,653.455200 74.061180,714.867798   C89.801651,757.993103 107.866295,800.058411 133.061584,838.676941   C146.866043,859.835938 162.589188,879.319458 183.339066,894.258606   C197.548935,904.489075 213.173111,910.826904 230.850266,912.617004   C154.379028,913.000000 77.758072,913.000000 1.000000,913.000000   C1.000000,745.312439 1.000000,577.624878 1.000000,409.468658  z"/>
<path fill="transparent" opacity="1.000000" stroke="none" d=" M335.975769,534.964600   C300.923676,575.768372 256.990662,592.385925 204.821350,580.743713   C152.007217,568.957642 118.579567,534.776428 105.493050,482.458221   C87.602501,410.934204 135.940521,337.349060 208.363922,323.928864   C281.118286,310.447357 349.085144,356.578644 362.570190,429.530640   C369.722809,468.225220 360.297577,503.470551 335.975769,534.964600  M166.230179,414.790375   C156.918289,431.964386 154.016342,450.074036 157.991104,469.290161   C166.310165,509.509216 206.475143,536.319153 247.332687,528.828247   C288.246979,521.326965 316.549286,481.456635 309.729126,440.928406   C304.275574,408.521057 279.864838,383.137115 248.387512,377.141174   C215.578690,370.891632 183.699600,385.344177 166.230179,414.790375  z"/>
<path fill="transparent" opacity="1.000000" stroke="none" d=" M581.337280,271.127808   C576.714233,291.521698 557.586731,304.818207 538.182190,301.461700   C517.539612,297.891052 502.978394,279.418121 505.460022,259.949036   C508.215149,238.334366 525.587463,223.629745 546.660767,225.075104   C569.362549,226.632156 585.304932,247.543701 581.337280,271.127808  z"/>
<path fill="transparent" opacity="1.000000" stroke="none" d=" M543.849243,191.160370   C531.555054,178.019165 528.746826,161.742294 535.978149,146.752579   C542.761353,132.691757 558.018250,123.885170 573.419067,125.140938   C589.835999,126.479568 603.873169,138.243210 607.833801,153.981628   C611.866516,170.006821 605.315430,186.773132 591.503601,195.775757   C577.669250,204.793106 559.945618,203.972549 546.753235,193.690552   C545.835449,192.975296 544.984375,192.174545 543.849243,191.160370  z"/>
<path fill="transparent" opacity="1.000000" stroke="none" d=" M660.677734,321.739807   C646.209351,330.013000 632.027649,330.014862 618.533081,320.876099   C605.330872,311.935272 599.848328,298.805481 602.277466,283.220093   C604.676575,267.828064 613.949707,257.382721 628.874268,252.568451   C646.774292,246.794327 666.332397,255.405228 674.659851,272.367432   C683.233826,289.831512 677.662903,309.864075 660.677734,321.739807  z"/>
<path fill="transparent" opacity="1.000000" stroke="none" d=" M629.985229,199.801987   C624.044434,177.172287 637.794434,155.732651 660.700439,151.390350   C681.249939,147.494766 702.663208,163.256897 705.008606,184.005173   C707.623657,207.139084 691.118713,226.912094 668.403748,227.858002   C651.117615,228.577835 636.414368,217.973709 629.985229,199.801987  z"/>
<path fill="var(--secondary-color)" opacity="1.000000" stroke="none" d=" M166.444397,414.491882   C183.699600,385.344177 215.578690,370.891632 248.387512,377.141174   C279.864838,383.137115 304.275574,408.521057 309.729126,440.928406   C316.549286,481.456635 288.246979,521.326965 247.332687,528.828247   C206.475143,536.319153 166.310165,509.509216 157.991104,469.290161   C154.016342,450.074036 156.918289,431.964386 166.444397,414.491882  z"/>
</svg>